# xmcd CD database file
#
# Track frame offsets:
#	150
#	2290
#	24542
#	55231
#	83870
#	110020
#	137718
#	178378
#	212428
#	222184
#	250772
#	257096
#
# Disc length: 3734 seconds
#
# Revision: 0
# Processed by: cddbd v1.5PL3 Copyright (c) Steve Scherf et al.
# Submitted via: CDex 1.51
#
DISCID=a20e940c
DTITLE=jimmy scott - live in tokyo
DYEAR=1900
DGENRE=Jazz
TTITLE0=opening
TTITLE1=all of me
TTITLE2=you don't know what love is
TTITLE3=i'll close my eyes
TTITLE4=pennies from heaven
TTITLE5=time after time
TTITLE6=sometime i feel like a motherless child
TTITLE7=i cried for you
TTITLE8=encore#1
TTITLE9=why was i born?
TTITLE10=encore#2
TTITLE11=everybody's somebody's fool
EXTD=
EXTT0=
EXTT1=
EXTT2=
EXTT3=
EXTT4=
EXTT5=
EXTT6=
EXTT7=
EXTT8=
EXTT9=
EXTT10=
EXTT11=
PLAYORDER=
